<?xml version="1.0" encoding="UTF-8" standalone="no"?>
<!-- Created with Inkscape (http://www.inkscape.org/) -->

<svg
   xmlns:dc="http://purl.org/dc/elements/1.1/"
   xmlns:cc="http://creativecommons.org/ns#"
   xmlns:rdf="http://www.w3.org/1999/02/22-rdf-syntax-ns#"
   xmlns:svg="http://www.w3.org/2000/svg"
   xmlns="http://www.w3.org/2000/svg"
   xmlns:sodipodi="http://sodipodi.sourceforge.net/DTD/sodipodi-0.dtd"
   xmlns:inkscape="http://www.inkscape.org/namespaces/inkscape"
   width="25mm"
   height="25mm"
   viewBox="0 0 25 25"
   version="1.1"
   id="svg4744"
   inkscape:version="0.92.0 r15299"
   sodipodi:docname="background.svg">
  <defs
     id="defs4738" />
  <sodipodi:namedview
     id="base"
     pagecolor="#ffffff"
     bordercolor="#666666"
     borderopacity="1.0"
     inkscape:pageopacity="0.0"
     inkscape:pageshadow="2"
     inkscape:zoom="1.979899"
     inkscape:cx="-139.93075"
     inkscape:cy="38.613507"
     inkscape:document-units="mm"
     inkscape:current-layer="layer1"
     showgrid="false"
     inkscape:window-width="2560"
     inkscape:window-height="1377"
     inkscape:window-x="-8"
     inkscape:window-y="-8"
     inkscape:window-maximized="1"
     fit-margin-top="0"
     fit-margin-left="0"
     fit-margin-right="0"
     fit-margin-bottom="0" />
  <metadata
     id="metadata4741">
    <rdf:RDF>
      <cc:Work
         rdf:about="">
        <dc:format>image/svg+xml</dc:format>
        <dc:type
           rdf:resource="http://purl.org/dc/dcmitype/StillImage" />
        <dc:title></dc:title>
      </cc:Work>
    </rdf:RDF>
  </metadata>
  <g
     inkscape:label="Layer 1"
     inkscape:groupmode="layer"
     id="layer1"
     transform="translate(-86.403289,-71.088596)">
    <g
       id="g4496"
       transform="translate(8.1890049,-5.5244983)"
       style="opacity:0.15">
      <g
         transform="matrix(0.24059284,0,0,-0.24059284,81.533508,115.02136)"
         style="fill:#666666"
         id="g4371">
        <path
           style="opacity:1;fill:#666666;fill-opacity:1;stroke:none;stroke-width:0.5;stroke-linecap:round;stroke-linejoin:bevel;stroke-miterlimit:4;stroke-dasharray:none;stroke-dashoffset:0;stroke-opacity:1"
           d="M 54.222008,128.78277 A 26.085438,26.085438 0 0 1 28.136069,102.69683 26.085438,26.085438 0 0 1 35.747007,84.307759 l 1.615625,1.634375 a 23.780856,23.780856 0 0 0 -6.920313,16.754696 23.780856,23.780856 0 0 0 23.779689,23.77969 z"
           id="path4421"
           inkscape:connector-curvature="0" />
        <path
           style="opacity:1;fill:#666666;fill-opacity:1;stroke:none;stroke-width:0.5;stroke-linecap:round;stroke-linejoin:bevel;stroke-miterlimit:4;stroke-dasharray:none;stroke-dashoffset:0;stroke-opacity:1"
           d="M 54.222008,121.91089 A 19.21442,19.21442 0 0 1 35.007944,102.69683 19.21442,19.21442 0 0 1 40.57357,89.193697 l 1.1875,1.201563 a 17.516875,17.516875 0 0 0 -5.054688,12.30157 17.516875,17.516875 0 0 0 17.515626,17.51563 z"
           id="path4423"
           inkscape:connector-curvature="0" />
        <path
           style="opacity:1;fill:#666666;fill-opacity:1;stroke:none;stroke-width:0.5;stroke-linecap:round;stroke-linejoin:bevel;stroke-miterlimit:4;stroke-dasharray:none;stroke-dashoffset:0;stroke-opacity:1"
           d="M 54.222008,115.43902 A 12.742402,12.742402 0 0 1 41.47982,102.69683 12.742402,12.742402 0 0 1 45.120445,93.79526 l 0.784375,0.793751 a 11.616643,11.616643 0 0 0 -3.298438,8.107819 11.616643,11.616643 0 0 0 11.615626,11.61563 z"
           id="path4425"
           inkscape:connector-curvature="0" />
        <path
           style="opacity:1;fill:#666666;fill-opacity:1;stroke:none;stroke-width:0.5;stroke-linecap:round;stroke-linejoin:bevel;stroke-miterlimit:4;stroke-dasharray:none;stroke-dashoffset:0;stroke-opacity:1"
           d="m 54.222008,109.62652 a 6.9304036,6.9304037 0 0 1 -6.929688,-6.92969 6.9304036,6.9304037 0 0 1 1.910938,-4.767194 l 0.428125,0.432813 a 6.31812,6.3181201 0 0 0 -1.726563,4.334381 6.31812,6.3181201 0 0 0 6.317188,6.31719 z"
           id="path4427"
           inkscape:connector-curvature="0" />
        <path
           style="opacity:1;fill:#666666;fill-opacity:1;stroke:none;stroke-width:0.5;stroke-linecap:round;stroke-linejoin:bevel;stroke-miterlimit:4;stroke-dasharray:none;stroke-dashoffset:0;stroke-opacity:1"
           d="M 54.222008,136.67808 A 33.981316,33.981316 0 0 1 20.240756,102.69683 33.981316,33.981316 0 0 1 30.200132,78.692134 l 2.107812,2.132813 a 30.979152,30.979152 0 0 0 -9.064063,21.871883 30.979152,30.979152 0 0 0 30.978127,30.97813 z"
           id="path4417"
           inkscape:connector-curvature="0" />
      </g>
      <circle
         transform="rotate(90)"
         r="0.45791158"
         cy="-94.567368"
         cx="90.336601"
         id="path4788"
         style="opacity:1;fill:#00509e;fill-opacity:1;fill-rule:nonzero;stroke:none;stroke-width:0.19247428;stroke-linecap:square;stroke-linejoin:miter;stroke-miterlimit:4;stroke-dasharray:none;stroke-dashoffset:0;stroke-opacity:1" />
    </g>
  </g>
</svg>
